# xmcd
#
# Track frame offsets: 
#        150
#        14992
#        29055
#        43826
#        59996
#        73623
#        88313
#        100355
#        114244
#        129513
#        142342
#        155482
#        168658
#        181808
#        198153
#        210109
#        225265
#        239303
#        252501
#        265492
#        277980
#
# Disc length: 3881 seconds
#
# Revision: 0
# Processed by: cddbd v1.5.2PL0 Copyright (c) Steve Scherf et al.
# Submitted via: ExactAudioCopyFreeDBPlugin 1.0
#
DISCID=410f2715
DTITLE=Tadeusz Faliszewski - Tylko Przeboje
DYEAR=2009
DGENRE=Oldies
TTITLE0=Tic-Ti,Tic-Ta
TTITLE1=Merci Madame
TTITLE2=Zawołasz na mnie
TTITLE3=Ta jedną noc
TTITLE4=Ach te Rumunki
TTITLE5=Carioca
TTITLE6=O Zuzanno
TTITLE7=Jestem sobie młody wdowiec
TTITLE8=Tak smutno mi bez ciebie
TTITLE9=Dzidzi
TTITLE10=O,daj mi
TTITLE11=Kto wie
TTITLE12=Nie chcę wiedzieć
TTITLE13=Pani tak tańczy
TTITLE14=My jesteśmy młodzi
TTITLE15=Jak gdyby nigdy nic
TTITLE16=Lubię
TTITLE17=Szklanka wina fest dziewczyna
TTITLE18=Słomiany wdowiec
TTITLE19=Gdy szumi Wisła
TTITLE20=Gdy szumi Wisła
EXTD=
EXTT0=
EXTT1=
EXTT2=
EXTT3=
EXTT4=
EXTT5=
EXTT6=
EXTT7=
EXTT8=
EXTT9=
EXTT10=
EXTT11=
EXTT12=
EXTT13=
EXTT14=
EXTT15=
EXTT16=
EXTT17=
EXTT18=
EXTT19=
EXTT20=
PLAYORDER=
